<svg t="1594796741676" class="icon" viewBox="0 0 1024 1024" version="1.1" xmlns="http://www.w3.org/2000/svg" p-id="10432" width="32" height="32"><path d="M117.29144969 943.64269615l-1.13272705-0.02497744c-6.54783684-0.21230827-40.58335037-2.39783459-63.25787366-23.65363909-23.2490045-21.8040594-26.02399849-53.15449771-26.3437098-59.22276766a30.65356766 30.65356766 0 0 1-0.04495939-1.71345263v-170.74580448c-0.33844436-7.03364811-0.79303383-30.79469021 7.16852632-57.1833594 7.62811129-25.30215038 17.05210075-41.91339924 19.75091351-46.39560147l85.72133758-151.65304659c0.42836317-0.76056315 0.88170374-1.49614887 1.36751504-2.21175264 2.67258648-3.96516916 17.0408609-24.37548721 36.74181955-36.63316766 20.73002933-12.90959172 45.8211203-13.90744061 53.02086842-13.9074406h541.4760089c0.69687068 0 1.38624811 0.01998196 2.09810527 0.06494136 5.3826391 0.34468872 33.33239849 2.70380828 54.96286467 15.07763384 20.65384811 11.8293173 37.27883459 32.50064961 40.39976615 36.51702253a33.71954887 33.71954887 0 0 1 1.78338946 2.55144587l101.80930901 161.32556162c0.43460753 0.71060828 0.8754594 1.45243835 1.27260076 2.21300151 1.95073835 3.74661653 12.01415037 23.54373834 17.11079774 42.79635188 5.03295489 19.04779849 6.24685864 40.09878797 6.43169172 44.12015637l0.02622633 1.37375939v170.77078193c0.11489625 9.02934587-1.54735263 40.01636239-27.25163987 63.04181878-24.34301653 21.79157068-57.11342255 23.47879699-66.57737591 23.47879701H117.29144969z m-8.72212329-324.33460293c-1.87330828 3.3307421-7.699297 14.34954135-12.59737371 30.58363082-5.17282857 17.16200151-4.55838346 33.20501352-4.47595787 34.98215862a49.33045113 49.33045113 0 0 1 0.08367443 2.30916465v170.71957818l0.06369248 0.47207368c0.4033857 3.06972781 2.27669398 10.50676165 5.50627745 13.86248122l0.43460752 0.46208269 0.51203758 0.37591054c4.5209173 3.33199098 15.72330075 5.2440143 19.63601729 5.48005112l786.14380663 0.01248873c6.5228594-0.07618121 17.92381353-2.25046766 23.09039774-6.88003685 4.62207594-4.14375789 5.65739097-11.25358722 5.65739097-12.39130978l-0.06244361-1.97571577v-169.98399245c-0.35218196-6.63151127-1.63727142-19.84832556-4.29736918-29.86053384-3.0122797-11.43966917-9.75119398-25.14354359-11.07499848-27.76492631l-0.36467069-0.63942256-99.9097744-158.33326389-0.31221806-0.37715939c-3.78658045-4.55963232-12.8658812-14.30458196-20.11683308-18.46082856-6.27932932-3.59300526-19.06778045-5.89467669-25.65433232-6.5091218l-0.68313306-0.03247069h-539.75006759c-5.05168797 0.0449594-14.43696241 1.38125263-18.7730466 4.09255415-6.10698498 3.80531353-13.33795488 12.50121054-16.31151955 16.56129398l-0.25601881 0.35218195-85.18432253 150.69890825-0.92041879 1.54735262 0.01248872-0.03871501c-0.02497743 0.07618121-0.39589249 0.73558571-0.39589248 0.7355857z m400.40590519-286.72356836a32.57183532 32.57183532 0 0 1-32.53936466-32.53312032V112.89042414a32.57183532 32.57183532 0 0 1 32.52687594-32.53312029 32.57807969 32.57807969 0 0 1 32.54560902 32.53312029v187.15848267a32.56559098 32.56559098 0 0 1-32.5331203 32.53312029z m218.13301047-1.23388572a32.57807969 32.57807969 0 0 1-32.53312028-32.54061354 32.61055037 32.61055037 0 0 1 7.26843606-20.49399249l74.3728361-91.72466612a32.43196164 32.43196164 0 0 1 25.30215038-12.04662105c7.51821053 0 14.59681804 2.51273083 20.45402854 7.2634406a32.26586165 32.26586165 0 0 1 11.8742767 21.89397818 32.28334586 32.28334586 0 0 1-7.07860751 23.86969397l-74.37033835 91.72591504a32.30332782 32.30332782 0 0 1-25.23970676 12.04662105h-0.04995488z m-432.60807435-2.4877534a32.30957218 32.30957218 0 0 1-25.41704661-12.25143608l-73.11147517-91.71842179a32.57183532 32.57183532 0 0 1 5.16033986-45.72495713 32.18843156 32.18843156 0 0 1 20.25670677-7.09734059c9.97474211 0 19.25261353 4.46846466 25.46200598 12.25768044l73.11771956 91.71717291a32.56559098 32.56559098 0 0 1-5.14660229 45.71996165 32.65550976 32.65550976 0 0 1-20.26919546 7.09734059h-0.05245264z" fill="#d9d9d9" p-id="10433"></path><path d="M510.21661053 809.78607813c-72.48454134 0-135.46266763-48.59611427-153.13670674-118.15954356l-1.42496314-5.60743609-288.93656989-0.17234438a32.604306 32.604306 0 0 1-32.53312029-32.55934661 32.57183532 32.57183532 0 0 1 32.53312029-32.52063157l318.16392551 0.20356617a32.59806165 32.59806165 0 0 1 32.51563608 32.545609c0 51.14131577 40.76943233 91.19514434 92.81867818 91.19514434 51.86316389 0 92.49147367-40.05257971 92.49147367-91.19389546a32.61679473 32.61679473 0 0 1 32.53312029-32.54685788l315.21783603-0.19857068c17.9475421 0 32.53312029 14.57308947 32.54560901 32.50814285s-14.57184061 32.5468579-32.50814285 32.57308421l-286.0129601 0.17234435-1.42621203 5.60743609c-17.65405715 69.56218043-80.49730525 118.15329922-152.84072402 118.15329922z" fill="#d9d9d9" p-id="10434"></path></svg>